<mxfile host="app.diagrams.net" modified="2023-10-10T20:02:39.807Z" agent="Mozilla/5.0 (Windows NT 10.0; Win64; x64) AppleWebKit/537.36 (KHTML, like Gecko) Chrome/117.0.0.0 Safari/537.36" etag="WjBpBlgI8AvEKB1VI7nR" version="22.0.4" type="google">
  <diagram name="PÃ¡gina-1" id="cSlM-cE0rFL330FUI_8P">
    <mxGraphModel dx="3243" dy="1895" grid="1" gridSize="10" guides="1" tooltips="1" connect="1" arrows="1" fold="1" page="1" pageScale="1" pageWidth="1169" pageHeight="827" math="0" shadow="0">
      <root>
        <mxCell id="0" />
        <mxCell id="1" parent="0" />
        <mxCell id="j69wh9Sq0bVNQojSnOhY-31" value="" style="rounded=0;whiteSpace=wrap;html=1;" parent="1" vertex="1">
          <mxGeometry x="-20" y="-154" width="1180" height="1080" as="geometry" />
        </mxCell>
        <mxCell id="e1QDSc3UWPRIE26_EMe_-5" value="Curriculas" style="swimlane;fontStyle=1;align=center;verticalAlign=top;childLayout=stackLayout;horizontal=1;startSize=26;horizontalStack=0;resizeParent=1;resizeParentMax=0;resizeLast=0;collapsible=1;marginBottom=0;whiteSpace=wrap;html=1;spacingLeft=0;" parent="1" vertex="1">
          <mxGeometry y="-140" width="260" height="216" as="geometry" />
        </mxCell>
        <mxCell id="e1QDSc3UWPRIE26_EMe_-43" value="- _id: int" style="text;strokeColor=none;fillColor=none;align=left;verticalAlign=top;spacingLeft=4;spacingRight=4;overflow=hidden;rotatable=0;points=[[0,0.5],[1,0.5]];portConstraint=eastwest;whiteSpace=wrap;html=1;" parent="e1QDSc3UWPRIE26_EMe_-5" vertex="1">
          <mxGeometry y="26" width="260" height="26" as="geometry" />
        </mxCell>
        <mxCell id="e1QDSc3UWPRIE26_EMe_-6" value="- _curso: Curso" style="text;strokeColor=none;fillColor=none;align=left;verticalAlign=top;spacingLeft=4;spacingRight=4;overflow=hidden;rotatable=0;points=[[0,0.5],[1,0.5]];portConstraint=eastwest;whiteSpace=wrap;html=1;" parent="e1QDSc3UWPRIE26_EMe_-5" vertex="1">
          <mxGeometry y="52" width="260" height="26" as="geometry" />
        </mxCell>
        <mxCell id="e1QDSc3UWPRIE26_EMe_-67" value="- _grupo: Grupo" style="text;strokeColor=none;fillColor=none;align=left;verticalAlign=top;spacingLeft=4;spacingRight=4;overflow=hidden;rotatable=0;points=[[0,0.5],[1,0.5]];portConstraint=eastwest;whiteSpace=wrap;html=1;" parent="e1QDSc3UWPRIE26_EMe_-5" vertex="1">
          <mxGeometry y="78" width="260" height="26" as="geometry" />
        </mxCell>
        <mxCell id="e1QDSc3UWPRIE26_EMe_-7" value="" style="line;strokeWidth=1;fillColor=none;align=left;verticalAlign=middle;spacingTop=-1;spacingLeft=3;spacingRight=3;rotatable=0;labelPosition=right;points=[];portConstraint=eastwest;strokeColor=inherit;" parent="e1QDSc3UWPRIE26_EMe_-5" vertex="1">
          <mxGeometry y="104" width="260" height="8" as="geometry" />
        </mxCell>
        <mxCell id="e1QDSc3UWPRIE26_EMe_-8" value="+ Curricula(id: int, curso: Curso, grupo: Grupo)" style="text;strokeColor=none;fillColor=none;align=left;verticalAlign=top;spacingLeft=4;spacingRight=4;overflow=hidden;rotatable=0;points=[[0,0.5],[1,0.5]];portConstraint=eastwest;whiteSpace=wrap;html=1;" parent="e1QDSc3UWPRIE26_EMe_-5" vertex="1">
          <mxGeometry y="112" width="260" height="26" as="geometry" />
        </mxCell>
        <mxCell id="e-Kmx84tTfotcJuYBP1H-1" value="+ getId(): int" style="text;strokeColor=none;fillColor=none;align=left;verticalAlign=top;spacingLeft=4;spacingRight=4;overflow=hidden;rotatable=0;points=[[0,0.5],[1,0.5]];portConstraint=eastwest;whiteSpace=wrap;html=1;" parent="e1QDSc3UWPRIE26_EMe_-5" vertex="1">
          <mxGeometry y="138" width="260" height="26" as="geometry" />
        </mxCell>
        <mxCell id="e-Kmx84tTfotcJuYBP1H-3" value="+ getGrupo(): Grupo" style="text;strokeColor=none;fillColor=none;align=left;verticalAlign=top;spacingLeft=4;spacingRight=4;overflow=hidden;rotatable=0;points=[[0,0.5],[1,0.5]];portConstraint=eastwest;whiteSpace=wrap;html=1;" parent="e1QDSc3UWPRIE26_EMe_-5" vertex="1">
          <mxGeometry y="164" width="260" height="26" as="geometry" />
        </mxCell>
        <mxCell id="e-Kmx84tTfotcJuYBP1H-2" value="+ getCurso(): Curso" style="text;strokeColor=none;fillColor=none;align=left;verticalAlign=top;spacingLeft=4;spacingRight=4;overflow=hidden;rotatable=0;points=[[0,0.5],[1,0.5]];portConstraint=eastwest;whiteSpace=wrap;html=1;" parent="e1QDSc3UWPRIE26_EMe_-5" vertex="1">
          <mxGeometry y="190" width="260" height="26" as="geometry" />
        </mxCell>
        <mxCell id="j69wh9Sq0bVNQojSnOhY-22" style="edgeStyle=orthogonalEdgeStyle;rounded=0;orthogonalLoop=1;jettySize=auto;html=1;startArrow=classic;startFill=1;endArrow=none;endFill=0;" parent="1" target="e1QDSc3UWPRIE26_EMe_-34" edge="1">
          <mxGeometry relative="1" as="geometry">
            <mxPoint x="585" y="140" as="sourcePoint" />
            <mxPoint x="740" y="230" as="targetPoint" />
            <Array as="points">
              <mxPoint x="755" y="140" />
            </Array>
          </mxGeometry>
        </mxCell>
        <mxCell id="j69wh9Sq0bVNQojSnOhY-23" value="1...n" style="edgeLabel;html=1;align=right;verticalAlign=bottom;resizable=0;points=[];labelPosition=left;verticalLabelPosition=top;spacingLeft=2;spacingBottom=2;spacingRight=2;spacingTop=2;" parent="j69wh9Sq0bVNQojSnOhY-22" connectable="0" vertex="1">
          <mxGeometry x="-0.7807" y="1" relative="1" as="geometry">
            <mxPoint as="offset" />
          </mxGeometry>
        </mxCell>
        <mxCell id="j69wh9Sq0bVNQojSnOhY-24" value="1...1" style="edgeLabel;html=1;align=left;verticalAlign=top;resizable=0;points=[];labelPosition=right;verticalLabelPosition=bottom;spacingLeft=2;spacingBottom=2;spacingRight=2;spacingTop=2;" parent="j69wh9Sq0bVNQojSnOhY-22" connectable="0" vertex="1">
          <mxGeometry x="0.7111" y="2" relative="1" as="geometry">
            <mxPoint y="16" as="offset" />
          </mxGeometry>
        </mxCell>
        <mxCell id="e1QDSc3UWPRIE26_EMe_-10" value="Inscripciones" style="swimlane;fontStyle=1;align=center;verticalAlign=top;childLayout=stackLayout;horizontal=1;startSize=26;horizontalStack=0;resizeParent=1;resizeParentMax=0;resizeLast=0;collapsible=1;marginBottom=0;whiteSpace=wrap;html=1;" parent="1" vertex="1">
          <mxGeometry x="269" y="27" width="320" height="386" as="geometry" />
        </mxCell>
        <mxCell id="e1QDSc3UWPRIE26_EMe_-44" value="- _id: int" style="text;strokeColor=none;fillColor=none;align=left;verticalAlign=top;spacingLeft=4;spacingRight=4;overflow=hidden;rotatable=0;points=[[0,0.5],[1,0.5]];portConstraint=eastwest;whiteSpace=wrap;html=1;" parent="e1QDSc3UWPRIE26_EMe_-10" vertex="1">
          <mxGeometry y="26" width="320" height="26" as="geometry" />
        </mxCell>
        <mxCell id="e1QDSc3UWPRIE26_EMe_-11" value="- _usuario: Usuario" style="text;strokeColor=none;fillColor=none;align=left;verticalAlign=top;spacingLeft=4;spacingRight=4;overflow=hidden;rotatable=0;points=[[0,0.5],[1,0.5]];portConstraint=eastwest;whiteSpace=wrap;html=1;" parent="e1QDSc3UWPRIE26_EMe_-10" vertex="1">
          <mxGeometry y="52" width="320" height="26" as="geometry" />
        </mxCell>
        <mxCell id="e1QDSc3UWPRIE26_EMe_-71" value="- _curso: Curso" style="text;strokeColor=none;fillColor=none;align=left;verticalAlign=top;spacingLeft=4;spacingRight=4;overflow=hidden;rotatable=0;points=[[0,0.5],[1,0.5]];portConstraint=eastwest;whiteSpace=wrap;html=1;" parent="e1QDSc3UWPRIE26_EMe_-10" vertex="1">
          <mxGeometry y="78" width="320" height="26" as="geometry" />
        </mxCell>
        <mxCell id="e1QDSc3UWPRIE26_EMe_-69" value="- _puntuacion: int" style="text;strokeColor=none;fillColor=none;align=left;verticalAlign=top;spacingLeft=4;spacingRight=4;overflow=hidden;rotatable=0;points=[[0,0.5],[1,0.5]];portConstraint=eastwest;whiteSpace=wrap;html=1;" parent="e1QDSc3UWPRIE26_EMe_-10" vertex="1">
          <mxGeometry y="104" width="320" height="26" as="geometry" />
        </mxCell>
        <mxCell id="e1QDSc3UWPRIE26_EMe_-70" value="- _favorito: bool" style="text;strokeColor=none;fillColor=none;align=left;verticalAlign=top;spacingLeft=4;spacingRight=4;overflow=hidden;rotatable=0;points=[[0,0.5],[1,0.5]];portConstraint=eastwest;whiteSpace=wrap;html=1;" parent="e1QDSc3UWPRIE26_EMe_-10" vertex="1">
          <mxGeometry y="130" width="320" height="26" as="geometry" />
        </mxCell>
        <mxCell id="e1QDSc3UWPRIE26_EMe_-72" value="- _ultimaLeccion: int" style="text;strokeColor=none;fillColor=none;align=left;verticalAlign=top;spacingLeft=4;spacingRight=4;overflow=hidden;rotatable=0;points=[[0,0.5],[1,0.5]];portConstraint=eastwest;whiteSpace=wrap;html=1;" parent="e1QDSc3UWPRIE26_EMe_-10" vertex="1">
          <mxGeometry y="156" width="320" height="26" as="geometry" />
        </mxCell>
        <mxCell id="e1QDSc3UWPRIE26_EMe_-12" value="" style="line;strokeWidth=1;fillColor=none;align=left;verticalAlign=middle;spacingTop=-1;spacingLeft=3;spacingRight=3;rotatable=0;labelPosition=right;points=[];portConstraint=eastwest;strokeColor=inherit;" parent="e1QDSc3UWPRIE26_EMe_-10" vertex="1">
          <mxGeometry y="182" width="320" height="8" as="geometry" />
        </mxCell>
        <mxCell id="e1QDSc3UWPRIE26_EMe_-84" value="+ Inscripcion(id: int, usuario: Usuario, curso: Curos, puntuacion: int, ultimaLeccion: int, favorito: bool)" style="text;strokeColor=none;fillColor=none;align=left;verticalAlign=top;spacingLeft=4;spacingRight=4;overflow=hidden;rotatable=0;points=[[0,0.5],[1,0.5]];portConstraint=eastwest;whiteSpace=wrap;html=1;" parent="e1QDSc3UWPRIE26_EMe_-10" vertex="1">
          <mxGeometry y="190" width="320" height="40" as="geometry" />
        </mxCell>
        <mxCell id="e1QDSc3UWPRIE26_EMe_-87" value="+ getId(): int" style="text;strokeColor=none;fillColor=none;align=left;verticalAlign=top;spacingLeft=4;spacingRight=4;overflow=hidden;rotatable=0;points=[[0,0.5],[1,0.5]];portConstraint=eastwest;whiteSpace=wrap;html=1;" parent="e1QDSc3UWPRIE26_EMe_-10" vertex="1">
          <mxGeometry y="230" width="320" height="26" as="geometry" />
        </mxCell>
        <mxCell id="e1QDSc3UWPRIE26_EMe_-85" value="+ getUsuario(): Usuario" style="text;strokeColor=none;fillColor=none;align=left;verticalAlign=top;spacingLeft=4;spacingRight=4;overflow=hidden;rotatable=0;points=[[0,0.5],[1,0.5]];portConstraint=eastwest;whiteSpace=wrap;html=1;" parent="e1QDSc3UWPRIE26_EMe_-10" vertex="1">
          <mxGeometry y="256" width="320" height="26" as="geometry" />
        </mxCell>
        <mxCell id="e1QDSc3UWPRIE26_EMe_-86" value="+ getCurso(): Curso" style="text;strokeColor=none;fillColor=none;align=left;verticalAlign=top;spacingLeft=4;spacingRight=4;overflow=hidden;rotatable=0;points=[[0,0.5],[1,0.5]];portConstraint=eastwest;whiteSpace=wrap;html=1;" parent="e1QDSc3UWPRIE26_EMe_-10" vertex="1">
          <mxGeometry y="282" width="320" height="26" as="geometry" />
        </mxCell>
        <mxCell id="e1QDSc3UWPRIE26_EMe_-13" value="+ getPuntuacion(): int" style="text;strokeColor=none;fillColor=none;align=left;verticalAlign=top;spacingLeft=4;spacingRight=4;overflow=hidden;rotatable=0;points=[[0,0.5],[1,0.5]];portConstraint=eastwest;whiteSpace=wrap;html=1;" parent="e1QDSc3UWPRIE26_EMe_-10" vertex="1">
          <mxGeometry y="308" width="320" height="26" as="geometry" />
        </mxCell>
        <mxCell id="e1QDSc3UWPRIE26_EMe_-91" value="+ getFavorito(): bool" style="text;strokeColor=none;fillColor=none;align=left;verticalAlign=top;spacingLeft=4;spacingRight=4;overflow=hidden;rotatable=0;points=[[0,0.5],[1,0.5]];portConstraint=eastwest;whiteSpace=wrap;html=1;" parent="e1QDSc3UWPRIE26_EMe_-10" vertex="1">
          <mxGeometry y="334" width="320" height="26" as="geometry" />
        </mxCell>
        <mxCell id="e1QDSc3UWPRIE26_EMe_-90" value="+ getUltimaLeccion: int" style="text;strokeColor=none;fillColor=none;align=left;verticalAlign=top;spacingLeft=4;spacingRight=4;overflow=hidden;rotatable=0;points=[[0,0.5],[1,0.5]];portConstraint=eastwest;whiteSpace=wrap;html=1;" parent="e1QDSc3UWPRIE26_EMe_-10" vertex="1">
          <mxGeometry y="360" width="320" height="26" as="geometry" />
        </mxCell>
        <mxCell id="e1QDSc3UWPRIE26_EMe_-14" value="Lecciones" style="swimlane;fontStyle=1;align=center;verticalAlign=top;childLayout=stackLayout;horizontal=1;startSize=26;horizontalStack=0;resizeParent=1;resizeParentMax=0;resizeLast=0;collapsible=1;marginBottom=0;whiteSpace=wrap;html=1;" parent="1" vertex="1">
          <mxGeometry x="5" y="530" width="210" height="396" as="geometry" />
        </mxCell>
        <mxCell id="e1QDSc3UWPRIE26_EMe_-49" value="- _id: int" style="text;strokeColor=none;fillColor=none;align=left;verticalAlign=top;spacingLeft=4;spacingRight=4;overflow=hidden;rotatable=0;points=[[0,0.5],[1,0.5]];portConstraint=eastwest;whiteSpace=wrap;html=1;" parent="e1QDSc3UWPRIE26_EMe_-14" vertex="1">
          <mxGeometry y="26" width="210" height="26" as="geometry" />
        </mxCell>
        <mxCell id="e1QDSc3UWPRIE26_EMe_-77" value="- _titulo: string" style="text;strokeColor=none;fillColor=none;align=left;verticalAlign=top;spacingLeft=4;spacingRight=4;overflow=hidden;rotatable=0;points=[[0,0.5],[1,0.5]];portConstraint=eastwest;whiteSpace=wrap;html=1;" parent="e1QDSc3UWPRIE26_EMe_-14" vertex="1">
          <mxGeometry y="52" width="210" height="26" as="geometry" />
        </mxCell>
        <mxCell id="e1QDSc3UWPRIE26_EMe_-79" value="- _contenido: string" style="text;strokeColor=none;fillColor=none;align=left;verticalAlign=top;spacingLeft=4;spacingRight=4;overflow=hidden;rotatable=0;points=[[0,0.5],[1,0.5]];portConstraint=eastwest;whiteSpace=wrap;html=1;" parent="e1QDSc3UWPRIE26_EMe_-14" vertex="1">
          <mxGeometry y="78" width="210" height="26" as="geometry" />
        </mxCell>
        <mxCell id="e1QDSc3UWPRIE26_EMe_-80" value="- _duracion: int" style="text;strokeColor=none;fillColor=none;align=left;verticalAlign=top;spacingLeft=4;spacingRight=4;overflow=hidden;rotatable=0;points=[[0,0.5],[1,0.5]];portConstraint=eastwest;whiteSpace=wrap;html=1;" parent="e1QDSc3UWPRIE26_EMe_-14" vertex="1">
          <mxGeometry y="104" width="210" height="26" as="geometry" />
        </mxCell>
        <mxCell id="e1QDSc3UWPRIE26_EMe_-78" value="- _orden: int" style="text;strokeColor=none;fillColor=none;align=left;verticalAlign=top;spacingLeft=4;spacingRight=4;overflow=hidden;rotatable=0;points=[[0,0.5],[1,0.5]];portConstraint=eastwest;whiteSpace=wrap;html=1;" parent="e1QDSc3UWPRIE26_EMe_-14" vertex="1">
          <mxGeometry y="130" width="210" height="26" as="geometry" />
        </mxCell>
        <mxCell id="e1QDSc3UWPRIE26_EMe_-15" value="- _curso: Curso" style="text;strokeColor=none;fillColor=none;align=left;verticalAlign=top;spacingLeft=4;spacingRight=4;overflow=hidden;rotatable=0;points=[[0,0.5],[1,0.5]];portConstraint=eastwest;whiteSpace=wrap;html=1;" parent="e1QDSc3UWPRIE26_EMe_-14" vertex="1">
          <mxGeometry y="156" width="210" height="26" as="geometry" />
        </mxCell>
        <mxCell id="e1QDSc3UWPRIE26_EMe_-16" value="" style="line;strokeWidth=1;fillColor=none;align=left;verticalAlign=middle;spacingTop=-1;spacingLeft=3;spacingRight=3;rotatable=0;labelPosition=right;points=[];portConstraint=eastwest;strokeColor=inherit;" parent="e1QDSc3UWPRIE26_EMe_-14" vertex="1">
          <mxGeometry y="182" width="210" height="8" as="geometry" />
        </mxCell>
        <mxCell id="e1QDSc3UWPRIE26_EMe_-17" value="+ Leccion(id: int, titulo: string, contenido: string, duracion: int, orden: int, curso: Curso)" style="text;strokeColor=none;fillColor=none;align=left;verticalAlign=top;spacingLeft=4;spacingRight=4;overflow=hidden;rotatable=0;points=[[0,0.5],[1,0.5]];portConstraint=eastwest;whiteSpace=wrap;html=1;" parent="e1QDSc3UWPRIE26_EMe_-14" vertex="1">
          <mxGeometry y="190" width="210" height="50" as="geometry" />
        </mxCell>
        <mxCell id="e1QDSc3UWPRIE26_EMe_-95" value="+ getId(): string" style="text;strokeColor=none;fillColor=none;align=left;verticalAlign=top;spacingLeft=4;spacingRight=4;overflow=hidden;rotatable=0;points=[[0,0.5],[1,0.5]];portConstraint=eastwest;whiteSpace=wrap;html=1;" parent="e1QDSc3UWPRIE26_EMe_-14" vertex="1">
          <mxGeometry y="240" width="210" height="26" as="geometry" />
        </mxCell>
        <mxCell id="e1QDSc3UWPRIE26_EMe_-99" value="+ getTitulo(): string" style="text;strokeColor=none;fillColor=none;align=left;verticalAlign=top;spacingLeft=4;spacingRight=4;overflow=hidden;rotatable=0;points=[[0,0.5],[1,0.5]];portConstraint=eastwest;whiteSpace=wrap;html=1;" parent="e1QDSc3UWPRIE26_EMe_-14" vertex="1">
          <mxGeometry y="266" width="210" height="26" as="geometry" />
        </mxCell>
        <mxCell id="e1QDSc3UWPRIE26_EMe_-100" value="+ getContenido(): string" style="text;strokeColor=none;fillColor=none;align=left;verticalAlign=top;spacingLeft=4;spacingRight=4;overflow=hidden;rotatable=0;points=[[0,0.5],[1,0.5]];portConstraint=eastwest;whiteSpace=wrap;html=1;" parent="e1QDSc3UWPRIE26_EMe_-14" vertex="1">
          <mxGeometry y="292" width="210" height="26" as="geometry" />
        </mxCell>
        <mxCell id="e1QDSc3UWPRIE26_EMe_-96" value="+ getDuracion(): int&lt;br&gt;" style="text;strokeColor=none;fillColor=none;align=left;verticalAlign=top;spacingLeft=4;spacingRight=4;overflow=hidden;rotatable=0;points=[[0,0.5],[1,0.5]];portConstraint=eastwest;whiteSpace=wrap;html=1;" parent="e1QDSc3UWPRIE26_EMe_-14" vertex="1">
          <mxGeometry y="318" width="210" height="26" as="geometry" />
        </mxCell>
        <mxCell id="e1QDSc3UWPRIE26_EMe_-98" value="+ getOrden(): int" style="text;strokeColor=none;fillColor=none;align=left;verticalAlign=top;spacingLeft=4;spacingRight=4;overflow=hidden;rotatable=0;points=[[0,0.5],[1,0.5]];portConstraint=eastwest;whiteSpace=wrap;html=1;" parent="e1QDSc3UWPRIE26_EMe_-14" vertex="1">
          <mxGeometry y="344" width="210" height="26" as="geometry" />
        </mxCell>
        <mxCell id="e1QDSc3UWPRIE26_EMe_-97" value="+ getCurso(): Curso" style="text;strokeColor=none;fillColor=none;align=left;verticalAlign=top;spacingLeft=4;spacingRight=4;overflow=hidden;rotatable=0;points=[[0,0.5],[1,0.5]];portConstraint=eastwest;whiteSpace=wrap;html=1;" parent="e1QDSc3UWPRIE26_EMe_-14" vertex="1">
          <mxGeometry y="370" width="210" height="26" as="geometry" />
        </mxCell>
        <mxCell id="e1QDSc3UWPRIE26_EMe_-18" value="Categorizaciones" style="swimlane;fontStyle=1;align=center;verticalAlign=top;childLayout=stackLayout;horizontal=1;startSize=26;horizontalStack=0;resizeParent=1;resizeParentMax=0;resizeLast=0;collapsible=1;marginBottom=0;whiteSpace=wrap;html=1;" parent="1" vertex="1">
          <mxGeometry x="235" y="450" width="330" height="216" as="geometry" />
        </mxCell>
        <mxCell id="e1QDSc3UWPRIE26_EMe_-46" value="- _id: int" style="text;strokeColor=none;fillColor=none;align=left;verticalAlign=top;spacingLeft=4;spacingRight=4;overflow=hidden;rotatable=0;points=[[0,0.5],[1,0.5]];portConstraint=eastwest;whiteSpace=wrap;html=1;" parent="e1QDSc3UWPRIE26_EMe_-18" vertex="1">
          <mxGeometry y="26" width="330" height="26" as="geometry" />
        </mxCell>
        <mxCell id="e1QDSc3UWPRIE26_EMe_-75" value="- _curso: Curso" style="text;strokeColor=none;fillColor=none;align=left;verticalAlign=top;spacingLeft=4;spacingRight=4;overflow=hidden;rotatable=0;points=[[0,0.5],[1,0.5]];portConstraint=eastwest;whiteSpace=wrap;html=1;" parent="e1QDSc3UWPRIE26_EMe_-18" vertex="1">
          <mxGeometry y="52" width="330" height="26" as="geometry" />
        </mxCell>
        <mxCell id="e1QDSc3UWPRIE26_EMe_-19" value="- _categoria: Categoria" style="text;strokeColor=none;fillColor=none;align=left;verticalAlign=top;spacingLeft=4;spacingRight=4;overflow=hidden;rotatable=0;points=[[0,0.5],[1,0.5]];portConstraint=eastwest;whiteSpace=wrap;html=1;" parent="e1QDSc3UWPRIE26_EMe_-18" vertex="1">
          <mxGeometry y="78" width="330" height="26" as="geometry" />
        </mxCell>
        <mxCell id="e1QDSc3UWPRIE26_EMe_-20" value="" style="line;strokeWidth=1;fillColor=none;align=left;verticalAlign=middle;spacingTop=-1;spacingLeft=3;spacingRight=3;rotatable=0;labelPosition=right;points=[];portConstraint=eastwest;strokeColor=inherit;" parent="e1QDSc3UWPRIE26_EMe_-18" vertex="1">
          <mxGeometry y="104" width="330" height="8" as="geometry" />
        </mxCell>
        <mxCell id="e1QDSc3UWPRIE26_EMe_-21" value="+ Categorizacion(id: int, curso: Curso, categoria: Categoria)" style="text;strokeColor=none;fillColor=none;align=left;verticalAlign=top;spacingLeft=4;spacingRight=4;overflow=hidden;rotatable=0;points=[[0,0.5],[1,0.5]];portConstraint=eastwest;whiteSpace=wrap;html=1;" parent="e1QDSc3UWPRIE26_EMe_-18" vertex="1">
          <mxGeometry y="112" width="330" height="26" as="geometry" />
        </mxCell>
        <mxCell id="e-Kmx84tTfotcJuYBP1H-4" value="+ getId(): int" style="text;strokeColor=none;fillColor=none;align=left;verticalAlign=top;spacingLeft=4;spacingRight=4;overflow=hidden;rotatable=0;points=[[0,0.5],[1,0.5]];portConstraint=eastwest;whiteSpace=wrap;html=1;" parent="e1QDSc3UWPRIE26_EMe_-18" vertex="1">
          <mxGeometry y="138" width="330" height="26" as="geometry" />
        </mxCell>
        <mxCell id="e-Kmx84tTfotcJuYBP1H-5" value="+ getCurso(): Curso" style="text;strokeColor=none;fillColor=none;align=left;verticalAlign=top;spacingLeft=4;spacingRight=4;overflow=hidden;rotatable=0;points=[[0,0.5],[1,0.5]];portConstraint=eastwest;whiteSpace=wrap;html=1;" parent="e1QDSc3UWPRIE26_EMe_-18" vertex="1">
          <mxGeometry y="164" width="330" height="26" as="geometry" />
        </mxCell>
        <mxCell id="e-Kmx84tTfotcJuYBP1H-6" value="+ getCategoria(): Curso" style="text;strokeColor=none;fillColor=none;align=left;verticalAlign=top;spacingLeft=4;spacingRight=4;overflow=hidden;rotatable=0;points=[[0,0.5],[1,0.5]];portConstraint=eastwest;whiteSpace=wrap;html=1;" parent="e1QDSc3UWPRIE26_EMe_-18" vertex="1">
          <mxGeometry y="190" width="330" height="26" as="geometry" />
        </mxCell>
        <mxCell id="j69wh9Sq0bVNQojSnOhY-5" style="edgeStyle=orthogonalEdgeStyle;rounded=0;orthogonalLoop=1;jettySize=auto;html=1;" parent="1" source="e1QDSc3UWPRIE26_EMe_-22" target="e1QDSc3UWPRIE26_EMe_-18" edge="1">
          <mxGeometry relative="1" as="geometry" />
        </mxCell>
        <mxCell id="j69wh9Sq0bVNQojSnOhY-6" value="1...n" style="edgeLabel;html=1;align=right;verticalAlign=bottom;resizable=0;points=[];labelPosition=left;verticalLabelPosition=top;spacingRight=2;spacingLeft=2;spacingBottom=2;spacingTop=2;" parent="j69wh9Sq0bVNQojSnOhY-5" connectable="0" vertex="1">
          <mxGeometry x="0.587" relative="1" as="geometry">
            <mxPoint x="-10" y="9" as="offset" />
          </mxGeometry>
        </mxCell>
        <mxCell id="j69wh9Sq0bVNQojSnOhY-7" value="1...1" style="edgeLabel;html=1;align=left;verticalAlign=top;resizable=0;points=[];labelPosition=right;verticalLabelPosition=bottom;spacingRight=2;spacingLeft=2;spacingBottom=2;spacingTop=2;" parent="j69wh9Sq0bVNQojSnOhY-5" connectable="0" vertex="1">
          <mxGeometry x="-0.7518" y="-1" relative="1" as="geometry">
            <mxPoint x="9" y="-15" as="offset" />
          </mxGeometry>
        </mxCell>
        <mxCell id="e1QDSc3UWPRIE26_EMe_-22" value="Categorias" style="swimlane;fontStyle=1;align=center;verticalAlign=top;childLayout=stackLayout;horizontal=1;startSize=26;horizontalStack=0;resizeParent=1;resizeParentMax=0;resizeLast=0;collapsible=1;marginBottom=0;whiteSpace=wrap;html=1;" parent="1" vertex="1">
          <mxGeometry x="255" y="700" width="310" height="216" as="geometry" />
        </mxCell>
        <mxCell id="e1QDSc3UWPRIE26_EMe_-48" value="- _id: int" style="text;strokeColor=none;fillColor=none;align=left;verticalAlign=top;spacingLeft=4;spacingRight=4;overflow=hidden;rotatable=0;points=[[0,0.5],[1,0.5]];portConstraint=eastwest;whiteSpace=wrap;html=1;" parent="e1QDSc3UWPRIE26_EMe_-22" vertex="1">
          <mxGeometry y="26" width="310" height="26" as="geometry" />
        </mxCell>
        <mxCell id="e1QDSc3UWPRIE26_EMe_-76" value="- _nombre: string" style="text;strokeColor=none;fillColor=none;align=left;verticalAlign=top;spacingLeft=4;spacingRight=4;overflow=hidden;rotatable=0;points=[[0,0.5],[1,0.5]];portConstraint=eastwest;whiteSpace=wrap;html=1;" parent="e1QDSc3UWPRIE26_EMe_-22" vertex="1">
          <mxGeometry y="52" width="310" height="26" as="geometry" />
        </mxCell>
        <mxCell id="e1QDSc3UWPRIE26_EMe_-23" value="- _descripcion: string" style="text;strokeColor=none;fillColor=none;align=left;verticalAlign=top;spacingLeft=4;spacingRight=4;overflow=hidden;rotatable=0;points=[[0,0.5],[1,0.5]];portConstraint=eastwest;whiteSpace=wrap;html=1;" parent="e1QDSc3UWPRIE26_EMe_-22" vertex="1">
          <mxGeometry y="78" width="310" height="26" as="geometry" />
        </mxCell>
        <mxCell id="e1QDSc3UWPRIE26_EMe_-24" value="" style="line;strokeWidth=1;fillColor=none;align=left;verticalAlign=middle;spacingTop=-1;spacingLeft=3;spacingRight=3;rotatable=0;labelPosition=right;points=[];portConstraint=eastwest;strokeColor=inherit;" parent="e1QDSc3UWPRIE26_EMe_-22" vertex="1">
          <mxGeometry y="104" width="310" height="8" as="geometry" />
        </mxCell>
        <mxCell id="e1QDSc3UWPRIE26_EMe_-25" value="+ Categoria(id: int, nombre: string, descripcion: string)" style="text;strokeColor=none;fillColor=none;align=left;verticalAlign=top;spacingLeft=4;spacingRight=4;overflow=hidden;rotatable=0;points=[[0,0.5],[1,0.5]];portConstraint=eastwest;whiteSpace=wrap;html=1;" parent="e1QDSc3UWPRIE26_EMe_-22" vertex="1">
          <mxGeometry y="112" width="310" height="26" as="geometry" />
        </mxCell>
        <mxCell id="j69wh9Sq0bVNQojSnOhY-48" value="+ getId(): int" style="text;strokeColor=none;fillColor=none;align=left;verticalAlign=top;spacingLeft=4;spacingRight=4;overflow=hidden;rotatable=0;points=[[0,0.5],[1,0.5]];portConstraint=eastwest;whiteSpace=wrap;html=1;" parent="e1QDSc3UWPRIE26_EMe_-22" vertex="1">
          <mxGeometry y="138" width="310" height="26" as="geometry" />
        </mxCell>
        <mxCell id="j69wh9Sq0bVNQojSnOhY-43" value="+ getNombre(): sitring" style="text;strokeColor=none;fillColor=none;align=left;verticalAlign=top;spacingLeft=4;spacingRight=4;overflow=hidden;rotatable=0;points=[[0,0.5],[1,0.5]];portConstraint=eastwest;whiteSpace=wrap;html=1;" parent="e1QDSc3UWPRIE26_EMe_-22" vertex="1">
          <mxGeometry y="164" width="310" height="26" as="geometry" />
        </mxCell>
        <mxCell id="j69wh9Sq0bVNQojSnOhY-49" value="+ getDescripcion(): string" style="text;strokeColor=none;fillColor=none;align=left;verticalAlign=top;spacingLeft=4;spacingRight=4;overflow=hidden;rotatable=0;points=[[0,0.5],[1,0.5]];portConstraint=eastwest;whiteSpace=wrap;html=1;" parent="e1QDSc3UWPRIE26_EMe_-22" vertex="1">
          <mxGeometry y="190" width="310" height="26" as="geometry" />
        </mxCell>
        <mxCell id="e1QDSc3UWPRIE26_EMe_-26" value="Divisiones" style="swimlane;fontStyle=1;align=center;verticalAlign=top;childLayout=stackLayout;horizontal=1;startSize=26;horizontalStack=0;resizeParent=1;resizeParentMax=0;resizeLast=0;collapsible=1;marginBottom=0;whiteSpace=wrap;html=1;" parent="1" vertex="1">
          <mxGeometry x="880" y="211" width="280" height="218" as="geometry" />
        </mxCell>
        <mxCell id="e1QDSc3UWPRIE26_EMe_-27" value="- _id: int" style="text;strokeColor=none;fillColor=none;align=left;verticalAlign=top;spacingLeft=4;spacingRight=4;overflow=hidden;rotatable=0;points=[[0,0.5],[1,0.5]];portConstraint=eastwest;whiteSpace=wrap;html=1;" parent="e1QDSc3UWPRIE26_EMe_-26" vertex="1">
          <mxGeometry y="26" width="280" height="26" as="geometry" />
        </mxCell>
        <mxCell id="e1QDSc3UWPRIE26_EMe_-64" value="- _grupo: Grupo" style="text;strokeColor=none;fillColor=none;align=left;verticalAlign=top;spacingLeft=4;spacingRight=4;overflow=hidden;rotatable=0;points=[[0,0.5],[1,0.5]];portConstraint=eastwest;whiteSpace=wrap;html=1;" parent="e1QDSc3UWPRIE26_EMe_-26" vertex="1">
          <mxGeometry y="52" width="280" height="26" as="geometry" />
        </mxCell>
        <mxCell id="e1QDSc3UWPRIE26_EMe_-65" value="- _usuario: Usuario" style="text;strokeColor=none;fillColor=none;align=left;verticalAlign=top;spacingLeft=4;spacingRight=4;overflow=hidden;rotatable=0;points=[[0,0.5],[1,0.5]];portConstraint=eastwest;whiteSpace=wrap;html=1;" parent="e1QDSc3UWPRIE26_EMe_-26" vertex="1">
          <mxGeometry y="78" width="280" height="26" as="geometry" />
        </mxCell>
        <mxCell id="e1QDSc3UWPRIE26_EMe_-28" value="" style="line;strokeWidth=1;fillColor=none;align=left;verticalAlign=middle;spacingTop=-1;spacingLeft=3;spacingRight=3;rotatable=0;labelPosition=right;points=[];portConstraint=eastwest;strokeColor=inherit;" parent="e1QDSc3UWPRIE26_EMe_-26" vertex="1">
          <mxGeometry y="104" width="280" height="8" as="geometry" />
        </mxCell>
        <mxCell id="e1QDSc3UWPRIE26_EMe_-29" value="+ Division(id: int, grupo: Grupo, usuario: Usuario)" style="text;strokeColor=none;fillColor=none;align=left;verticalAlign=top;spacingLeft=4;spacingRight=4;overflow=hidden;rotatable=0;points=[[0,0.5],[1,0.5]];portConstraint=eastwest;whiteSpace=wrap;html=1;" parent="e1QDSc3UWPRIE26_EMe_-26" vertex="1">
          <mxGeometry y="112" width="280" height="28" as="geometry" />
        </mxCell>
        <mxCell id="j69wh9Sq0bVNQojSnOhY-37" value="+ getId(): int" style="text;strokeColor=none;fillColor=none;align=left;verticalAlign=top;spacingLeft=4;spacingRight=4;overflow=hidden;rotatable=0;points=[[0,0.5],[1,0.5]];portConstraint=eastwest;whiteSpace=wrap;html=1;" parent="e1QDSc3UWPRIE26_EMe_-26" vertex="1">
          <mxGeometry y="140" width="280" height="26" as="geometry" />
        </mxCell>
        <mxCell id="j69wh9Sq0bVNQojSnOhY-36" value="+ getGrupo(): Grupo" style="text;strokeColor=none;fillColor=none;align=left;verticalAlign=top;spacingLeft=4;spacingRight=4;overflow=hidden;rotatable=0;points=[[0,0.5],[1,0.5]];portConstraint=eastwest;whiteSpace=wrap;html=1;" parent="e1QDSc3UWPRIE26_EMe_-26" vertex="1">
          <mxGeometry y="166" width="280" height="26" as="geometry" />
        </mxCell>
        <mxCell id="j69wh9Sq0bVNQojSnOhY-38" value="+ getUsuario(): Usuario" style="text;strokeColor=none;fillColor=none;align=left;verticalAlign=top;spacingLeft=4;spacingRight=4;overflow=hidden;rotatable=0;points=[[0,0.5],[1,0.5]];portConstraint=eastwest;whiteSpace=wrap;html=1;" parent="e1QDSc3UWPRIE26_EMe_-26" vertex="1">
          <mxGeometry y="192" width="280" height="26" as="geometry" />
        </mxCell>
        <mxCell id="j69wh9Sq0bVNQojSnOhY-19" style="edgeStyle=orthogonalEdgeStyle;rounded=0;orthogonalLoop=1;jettySize=auto;html=1;" parent="1" source="e1QDSc3UWPRIE26_EMe_-30" target="e1QDSc3UWPRIE26_EMe_-5" edge="1">
          <mxGeometry relative="1" as="geometry" />
        </mxCell>
        <mxCell id="j69wh9Sq0bVNQojSnOhY-20" value="1...n" style="edgeLabel;html=1;align=right;verticalAlign=bottom;resizable=0;points=[];labelPosition=left;verticalLabelPosition=top;spacingLeft=2;spacingBottom=2;spacingRight=2;spacingTop=2;" parent="j69wh9Sq0bVNQojSnOhY-19" connectable="0" vertex="1">
          <mxGeometry x="0.6879" relative="1" as="geometry">
            <mxPoint x="-30" y="-5" as="offset" />
          </mxGeometry>
        </mxCell>
        <mxCell id="j69wh9Sq0bVNQojSnOhY-21" value="1...1" style="edgeLabel;html=1;align=left;verticalAlign=top;resizable=0;points=[];labelPosition=right;verticalLabelPosition=bottom;spacingBottom=2;spacingRight=2;spacingLeft=0;" parent="j69wh9Sq0bVNQojSnOhY-19" connectable="0" vertex="1">
          <mxGeometry x="-0.7021" y="3" relative="1" as="geometry">
            <mxPoint x="27" as="offset" />
          </mxGeometry>
        </mxCell>
        <mxCell id="j69wh9Sq0bVNQojSnOhY-26" style="edgeStyle=orthogonalEdgeStyle;rounded=0;orthogonalLoop=1;jettySize=auto;html=1;" parent="1" source="e1QDSc3UWPRIE26_EMe_-30" target="e1QDSc3UWPRIE26_EMe_-26" edge="1">
          <mxGeometry relative="1" as="geometry" />
        </mxCell>
        <mxCell id="j69wh9Sq0bVNQojSnOhY-29" value="1...1" style="edgeLabel;html=1;align=right;verticalAlign=bottom;resizable=0;points=[];labelPosition=left;verticalLabelPosition=top;spacingTop=2;spacingBottom=2;spacingRight=2;spacingLeft=2;" parent="j69wh9Sq0bVNQojSnOhY-26" connectable="0" vertex="1">
          <mxGeometry x="-0.9171" y="3" relative="1" as="geometry">
            <mxPoint x="-3" y="10" as="offset" />
          </mxGeometry>
        </mxCell>
        <mxCell id="j69wh9Sq0bVNQojSnOhY-30" value="1...n" style="edgeLabel;html=1;align=left;verticalAlign=top;resizable=0;points=[];labelPosition=right;verticalLabelPosition=bottom;spacingTop=2;spacingBottom=2;spacingRight=2;spacingLeft=2;" parent="j69wh9Sq0bVNQojSnOhY-26" connectable="0" vertex="1">
          <mxGeometry x="0.8736" y="1" relative="1" as="geometry">
            <mxPoint x="-1" y="-20" as="offset" />
          </mxGeometry>
        </mxCell>
        <mxCell id="e1QDSc3UWPRIE26_EMe_-30" value="Grupos" style="swimlane;fontStyle=1;align=center;verticalAlign=top;childLayout=stackLayout;horizontal=1;startSize=26;horizontalStack=0;resizeParent=1;resizeParentMax=0;resizeLast=0;collapsible=1;marginBottom=0;whiteSpace=wrap;html=1;spacingLeft=2;spacingTop=2;" parent="1" vertex="1">
          <mxGeometry x="710" y="-120" width="260" height="228" as="geometry" />
        </mxCell>
        <mxCell id="e1QDSc3UWPRIE26_EMe_-42" value="- _id: int" style="text;strokeColor=none;fillColor=none;align=left;verticalAlign=top;spacingLeft=4;spacingRight=4;overflow=hidden;rotatable=0;points=[[0,0.5],[1,0.5]];portConstraint=eastwest;whiteSpace=wrap;html=1;" parent="e1QDSc3UWPRIE26_EMe_-30" vertex="1">
          <mxGeometry y="26" width="260" height="24" as="geometry" />
        </mxCell>
        <mxCell id="e1QDSc3UWPRIE26_EMe_-31" value="- _nombre: string" style="text;strokeColor=none;fillColor=none;align=left;verticalAlign=top;spacingLeft=4;spacingRight=4;overflow=hidden;rotatable=0;points=[[0,0.5],[1,0.5]];portConstraint=eastwest;whiteSpace=wrap;html=1;" parent="e1QDSc3UWPRIE26_EMe_-30" vertex="1">
          <mxGeometry y="50" width="260" height="26" as="geometry" />
        </mxCell>
        <mxCell id="e1QDSc3UWPRIE26_EMe_-66" value="- _invitacion: string" style="text;strokeColor=none;fillColor=none;align=left;verticalAlign=top;spacingLeft=4;spacingRight=4;overflow=hidden;rotatable=0;points=[[0,0.5],[1,0.5]];portConstraint=eastwest;whiteSpace=wrap;html=1;" parent="e1QDSc3UWPRIE26_EMe_-30" vertex="1">
          <mxGeometry y="76" width="260" height="26" as="geometry" />
        </mxCell>
        <mxCell id="e1QDSc3UWPRIE26_EMe_-32" value="" style="line;strokeWidth=1;fillColor=none;align=left;verticalAlign=middle;spacingTop=-1;spacingLeft=3;spacingRight=3;rotatable=0;labelPosition=right;points=[];portConstraint=eastwest;strokeColor=inherit;" parent="e1QDSc3UWPRIE26_EMe_-30" vertex="1">
          <mxGeometry y="102" width="260" height="8" as="geometry" />
        </mxCell>
        <mxCell id="e1QDSc3UWPRIE26_EMe_-33" value="+ Grupo(id: int, nombre: string, invitacion: string" style="text;strokeColor=none;fillColor=none;align=left;verticalAlign=top;spacingLeft=4;spacingRight=4;overflow=hidden;rotatable=0;points=[[0,0.5],[1,0.5]];portConstraint=eastwest;whiteSpace=wrap;html=1;" parent="e1QDSc3UWPRIE26_EMe_-30" vertex="1">
          <mxGeometry y="110" width="260" height="40" as="geometry" />
        </mxCell>
        <mxCell id="j69wh9Sq0bVNQojSnOhY-34" value="+ getId(): int" style="text;strokeColor=none;fillColor=none;align=left;verticalAlign=top;spacingLeft=4;spacingRight=4;overflow=hidden;rotatable=0;points=[[0,0.5],[1,0.5]];portConstraint=eastwest;whiteSpace=wrap;html=1;" parent="e1QDSc3UWPRIE26_EMe_-30" vertex="1">
          <mxGeometry y="150" width="260" height="26" as="geometry" />
        </mxCell>
        <mxCell id="j69wh9Sq0bVNQojSnOhY-35" value="+ getNombre(): string" style="text;strokeColor=none;fillColor=none;align=left;verticalAlign=top;spacingLeft=4;spacingRight=4;overflow=hidden;rotatable=0;points=[[0,0.5],[1,0.5]];portConstraint=eastwest;whiteSpace=wrap;html=1;" parent="e1QDSc3UWPRIE26_EMe_-30" vertex="1">
          <mxGeometry y="176" width="260" height="26" as="geometry" />
        </mxCell>
        <mxCell id="j69wh9Sq0bVNQojSnOhY-33" value="+ getInvitacion(): string" style="text;strokeColor=none;fillColor=none;align=left;verticalAlign=top;spacingLeft=4;spacingRight=4;overflow=hidden;rotatable=0;points=[[0,0.5],[1,0.5]];portConstraint=eastwest;whiteSpace=wrap;html=1;" parent="e1QDSc3UWPRIE26_EMe_-30" vertex="1">
          <mxGeometry y="202" width="260" height="26" as="geometry" />
        </mxCell>
        <mxCell id="e1QDSc3UWPRIE26_EMe_-34" value="Usuarios" style="swimlane;fontStyle=1;align=center;verticalAlign=top;childLayout=stackLayout;horizontal=1;startSize=26;horizontalStack=0;resizeParent=1;resizeParentMax=0;resizeLast=0;collapsible=1;marginBottom=0;whiteSpace=wrap;html=1;" parent="1" vertex="1">
          <mxGeometry x="600" y="290" width="250" height="448" as="geometry" />
        </mxCell>
        <mxCell id="e1QDSc3UWPRIE26_EMe_-47" value="- _id: int" style="text;strokeColor=none;fillColor=none;align=left;verticalAlign=top;spacingLeft=4;spacingRight=4;overflow=hidden;rotatable=0;points=[[0,0.5],[1,0.5]];portConstraint=eastwest;whiteSpace=wrap;html=1;" parent="e1QDSc3UWPRIE26_EMe_-34" vertex="1">
          <mxGeometry y="26" width="250" height="26" as="geometry" />
        </mxCell>
        <mxCell id="e1QDSc3UWPRIE26_EMe_-35" value="- _nombre: string" style="text;strokeColor=none;fillColor=none;align=left;verticalAlign=top;spacingLeft=4;spacingRight=4;overflow=hidden;rotatable=0;points=[[0,0.5],[1,0.5]];portConstraint=eastwest;whiteSpace=wrap;html=1;" parent="e1QDSc3UWPRIE26_EMe_-34" vertex="1">
          <mxGeometry y="52" width="250" height="26" as="geometry" />
        </mxCell>
        <mxCell id="e1QDSc3UWPRIE26_EMe_-52" value="- _apellido: string" style="text;strokeColor=none;fillColor=none;align=left;verticalAlign=top;spacingLeft=4;spacingRight=4;overflow=hidden;rotatable=0;points=[[0,0.5],[1,0.5]];portConstraint=eastwest;whiteSpace=wrap;html=1;" parent="e1QDSc3UWPRIE26_EMe_-34" vertex="1">
          <mxGeometry y="78" width="250" height="26" as="geometry" />
        </mxCell>
        <mxCell id="e1QDSc3UWPRIE26_EMe_-54" value="- _email: string" style="text;strokeColor=none;fillColor=none;align=left;verticalAlign=top;spacingLeft=4;spacingRight=4;overflow=hidden;rotatable=0;points=[[0,0.5],[1,0.5]];portConstraint=eastwest;whiteSpace=wrap;html=1;" parent="e1QDSc3UWPRIE26_EMe_-34" vertex="1">
          <mxGeometry y="104" width="250" height="26" as="geometry" />
        </mxCell>
        <mxCell id="e1QDSc3UWPRIE26_EMe_-53" value="- _clave: string" style="text;strokeColor=none;fillColor=none;align=left;verticalAlign=top;spacingLeft=4;spacingRight=4;overflow=hidden;rotatable=0;points=[[0,0.5],[1,0.5]];portConstraint=eastwest;whiteSpace=wrap;html=1;" parent="e1QDSc3UWPRIE26_EMe_-34" vertex="1">
          <mxGeometry y="130" width="250" height="26" as="geometry" />
        </mxCell>
        <mxCell id="e1QDSc3UWPRIE26_EMe_-55" value="- _rol: Rol ( Estudiante )" style="text;strokeColor=none;fillColor=none;align=left;verticalAlign=top;spacingLeft=4;spacingRight=4;overflow=hidden;rotatable=0;points=[[0,0.5],[1,0.5]];portConstraint=eastwest;whiteSpace=wrap;html=1;" parent="e1QDSc3UWPRIE26_EMe_-34" vertex="1">
          <mxGeometry y="156" width="250" height="26" as="geometry" />
        </mxCell>
        <mxCell id="e1QDSc3UWPRIE26_EMe_-61" value="- _telefono: string" style="text;strokeColor=none;fillColor=none;align=left;verticalAlign=top;spacingLeft=4;spacingRight=4;overflow=hidden;rotatable=0;points=[[0,0.5],[1,0.5]];portConstraint=eastwest;whiteSpace=wrap;html=1;" parent="e1QDSc3UWPRIE26_EMe_-34" vertex="1">
          <mxGeometry y="182" width="250" height="26" as="geometry" />
        </mxCell>
        <mxCell id="e1QDSc3UWPRIE26_EMe_-36" value="" style="line;strokeWidth=1;fillColor=none;align=left;verticalAlign=middle;spacingTop=-1;spacingLeft=3;spacingRight=3;rotatable=0;labelPosition=right;points=[];portConstraint=eastwest;strokeColor=inherit;" parent="e1QDSc3UWPRIE26_EMe_-34" vertex="1">
          <mxGeometry y="208" width="250" height="8" as="geometry" />
        </mxCell>
        <mxCell id="e1QDSc3UWPRIE26_EMe_-56" value="+ Usuario(id: int, nombre: string, apellido: string, email: string, clave:string, rol: string, telefono: string)" style="text;strokeColor=none;fillColor=none;align=left;verticalAlign=top;spacingLeft=4;spacingRight=4;overflow=hidden;rotatable=0;points=[[0,0.5],[1,0.5]];portConstraint=eastwest;whiteSpace=wrap;html=1;" parent="e1QDSc3UWPRIE26_EMe_-34" vertex="1">
          <mxGeometry y="216" width="250" height="50" as="geometry" />
        </mxCell>
        <mxCell id="e1QDSc3UWPRIE26_EMe_-58" value="+ getId(): int" style="text;strokeColor=none;fillColor=none;align=left;verticalAlign=top;spacingLeft=4;spacingRight=4;overflow=hidden;rotatable=0;points=[[0,0.5],[1,0.5]];portConstraint=eastwest;whiteSpace=wrap;html=1;" parent="e1QDSc3UWPRIE26_EMe_-34" vertex="1">
          <mxGeometry y="266" width="250" height="26" as="geometry" />
        </mxCell>
        <mxCell id="e1QDSc3UWPRIE26_EMe_-88" value="+ getNombre(): string" style="text;strokeColor=none;fillColor=none;align=left;verticalAlign=top;spacingLeft=4;spacingRight=4;overflow=hidden;rotatable=0;points=[[0,0.5],[1,0.5]];portConstraint=eastwest;whiteSpace=wrap;html=1;" parent="e1QDSc3UWPRIE26_EMe_-34" vertex="1">
          <mxGeometry y="292" width="250" height="26" as="geometry" />
        </mxCell>
        <mxCell id="e1QDSc3UWPRIE26_EMe_-37" value="+ getApellido(): string" style="text;strokeColor=none;fillColor=none;align=left;verticalAlign=top;spacingLeft=4;spacingRight=4;overflow=hidden;rotatable=0;points=[[0,0.5],[1,0.5]];portConstraint=eastwest;whiteSpace=wrap;html=1;" parent="e1QDSc3UWPRIE26_EMe_-34" vertex="1">
          <mxGeometry y="318" width="250" height="26" as="geometry" />
        </mxCell>
        <mxCell id="e1QDSc3UWPRIE26_EMe_-59" value="+ getEmail(): string" style="text;strokeColor=none;fillColor=none;align=left;verticalAlign=top;spacingLeft=4;spacingRight=4;overflow=hidden;rotatable=0;points=[[0,0.5],[1,0.5]];portConstraint=eastwest;whiteSpace=wrap;html=1;" parent="e1QDSc3UWPRIE26_EMe_-34" vertex="1">
          <mxGeometry y="344" width="250" height="26" as="geometry" />
        </mxCell>
        <mxCell id="e1QDSc3UWPRIE26_EMe_-60" value="+ getClave(): string" style="text;strokeColor=none;fillColor=none;align=left;verticalAlign=top;spacingLeft=4;spacingRight=4;overflow=hidden;rotatable=0;points=[[0,0.5],[1,0.5]];portConstraint=eastwest;whiteSpace=wrap;html=1;" parent="e1QDSc3UWPRIE26_EMe_-34" vertex="1">
          <mxGeometry y="370" width="250" height="26" as="geometry" />
        </mxCell>
        <mxCell id="e1QDSc3UWPRIE26_EMe_-62" value="+ getRol(): string" style="text;strokeColor=none;fillColor=none;align=left;verticalAlign=top;spacingLeft=4;spacingRight=4;overflow=hidden;rotatable=0;points=[[0,0.5],[1,0.5]];portConstraint=eastwest;whiteSpace=wrap;html=1;" parent="e1QDSc3UWPRIE26_EMe_-34" vertex="1">
          <mxGeometry y="396" width="250" height="26" as="geometry" />
        </mxCell>
        <mxCell id="e1QDSc3UWPRIE26_EMe_-63" value="+ getTelefono(): string" style="text;strokeColor=none;fillColor=none;align=left;verticalAlign=top;spacingLeft=4;spacingRight=4;overflow=hidden;rotatable=0;points=[[0,0.5],[1,0.5]];portConstraint=eastwest;whiteSpace=wrap;html=1;" parent="e1QDSc3UWPRIE26_EMe_-34" vertex="1">
          <mxGeometry y="422" width="250" height="26" as="geometry" />
        </mxCell>
        <mxCell id="e1QDSc3UWPRIE26_EMe_-101" style="edgeStyle=orthogonalEdgeStyle;rounded=0;orthogonalLoop=1;jettySize=auto;html=1;verticalAlign=middle;" parent="1" source="e1QDSc3UWPRIE26_EMe_-38" target="e1QDSc3UWPRIE26_EMe_-14" edge="1">
          <mxGeometry relative="1" as="geometry">
            <mxPoint x="110" y="480" as="targetPoint" />
          </mxGeometry>
        </mxCell>
        <mxCell id="j69wh9Sq0bVNQojSnOhY-1" value="1...1" style="edgeLabel;html=1;align=right;verticalAlign=bottom;resizable=0;points=[];horizontal=1;labelPosition=left;verticalLabelPosition=top;spacingRight=2;spacingLeft=2;spacingTop=2;spacingBottom=2;" parent="e1QDSc3UWPRIE26_EMe_-101" connectable="0" vertex="1">
          <mxGeometry x="-0.5945" y="-2" relative="1" as="geometry">
            <mxPoint as="offset" />
          </mxGeometry>
        </mxCell>
        <mxCell id="j69wh9Sq0bVNQojSnOhY-4" value="1...n" style="edgeLabel;html=1;align=left;verticalAlign=top;resizable=0;points=[];labelPosition=right;verticalLabelPosition=bottom;spacingLeft=2;spacingBottom=2;spacingRight=2;spacingTop=2;" parent="e1QDSc3UWPRIE26_EMe_-101" connectable="0" vertex="1">
          <mxGeometry x="0.5942" y="2" relative="1" as="geometry">
            <mxPoint as="offset" />
          </mxGeometry>
        </mxCell>
        <mxCell id="j69wh9Sq0bVNQojSnOhY-8" style="edgeStyle=orthogonalEdgeStyle;rounded=0;orthogonalLoop=1;jettySize=auto;html=1;" parent="1" source="e1QDSc3UWPRIE26_EMe_-38" target="e1QDSc3UWPRIE26_EMe_-5" edge="1">
          <mxGeometry relative="1" as="geometry" />
        </mxCell>
        <mxCell id="j69wh9Sq0bVNQojSnOhY-9" value="1...n" style="edgeLabel;html=1;align=left;verticalAlign=bottom;resizable=0;points=[];labelPosition=right;verticalLabelPosition=top;spacingLeft=2;spacingBottom=2;spacingRight=2;spacingTop=2;" parent="j69wh9Sq0bVNQojSnOhY-8" connectable="0" vertex="1">
          <mxGeometry x="0.5928" relative="1" as="geometry">
            <mxPoint x="10" y="6" as="offset" />
          </mxGeometry>
        </mxCell>
        <mxCell id="j69wh9Sq0bVNQojSnOhY-10" value="1...1" style="edgeLabel;html=1;align=right;verticalAlign=top;resizable=0;points=[];labelPosition=left;verticalLabelPosition=bottom;spacingLeft=2;spacingBottom=20;spacingTop=2;spacingRight=2;" parent="j69wh9Sq0bVNQojSnOhY-8" connectable="0" vertex="1">
          <mxGeometry x="-0.6101" y="3" relative="1" as="geometry">
            <mxPoint y="-13" as="offset" />
          </mxGeometry>
        </mxCell>
        <mxCell id="j69wh9Sq0bVNQojSnOhY-11" style="edgeStyle=orthogonalEdgeStyle;rounded=0;orthogonalLoop=1;jettySize=auto;html=1;" parent="1" source="e1QDSc3UWPRIE26_EMe_-38" target="e1QDSc3UWPRIE26_EMe_-10" edge="1">
          <mxGeometry relative="1" as="geometry" />
        </mxCell>
        <mxCell id="j69wh9Sq0bVNQojSnOhY-12" value="1...n" style="edgeLabel;html=1;align=right;verticalAlign=bottom;resizable=0;points=[];labelPosition=left;verticalLabelPosition=top;spacingLeft=2;spacingBottom=2;spacingRight=2;spacingTop=2;" parent="j69wh9Sq0bVNQojSnOhY-11" connectable="0" vertex="1">
          <mxGeometry x="0.6196" y="1" relative="1" as="geometry">
            <mxPoint as="offset" />
          </mxGeometry>
        </mxCell>
        <mxCell id="j69wh9Sq0bVNQojSnOhY-13" value="1...1" style="edgeLabel;html=1;align=left;verticalAlign=top;resizable=0;points=[];labelPosition=right;verticalLabelPosition=bottom;spacingLeft=2;spacingBottom=2;spacingRight=2;spacingTop=2;" parent="j69wh9Sq0bVNQojSnOhY-11" connectable="0" vertex="1">
          <mxGeometry x="-0.692" y="2" relative="1" as="geometry">
            <mxPoint x="-11" as="offset" />
          </mxGeometry>
        </mxCell>
        <mxCell id="e1QDSc3UWPRIE26_EMe_-38" value="Cursos" style="swimlane;fontStyle=1;align=center;verticalAlign=top;childLayout=stackLayout;horizontal=1;startSize=26;horizontalStack=0;resizeParent=1;resizeParentMax=0;resizeLast=0;collapsible=1;marginBottom=0;whiteSpace=wrap;html=1;" parent="1" vertex="1">
          <mxGeometry x="5" y="120" width="160" height="304" as="geometry" />
        </mxCell>
        <mxCell id="e1QDSc3UWPRIE26_EMe_-45" value="- _id: int" style="text;strokeColor=none;fillColor=none;align=left;verticalAlign=top;spacingLeft=4;spacingRight=4;overflow=hidden;rotatable=0;points=[[0,0.5],[1,0.5]];portConstraint=eastwest;whiteSpace=wrap;html=1;" parent="e1QDSc3UWPRIE26_EMe_-38" vertex="1">
          <mxGeometry y="26" width="160" height="26" as="geometry" />
        </mxCell>
        <mxCell id="e1QDSc3UWPRIE26_EMe_-81" value="- _titulo: tring" style="text;strokeColor=none;fillColor=none;align=left;verticalAlign=top;spacingLeft=4;spacingRight=4;overflow=hidden;rotatable=0;points=[[0,0.5],[1,0.5]];portConstraint=eastwest;whiteSpace=wrap;html=1;" parent="e1QDSc3UWPRIE26_EMe_-38" vertex="1">
          <mxGeometry y="52" width="160" height="26" as="geometry" />
        </mxCell>
        <mxCell id="e1QDSc3UWPRIE26_EMe_-82" value="- _descripcion: string" style="text;strokeColor=none;fillColor=none;align=left;verticalAlign=top;spacingLeft=4;spacingRight=4;overflow=hidden;rotatable=0;points=[[0,0.5],[1,0.5]];portConstraint=eastwest;whiteSpace=wrap;html=1;" parent="e1QDSc3UWPRIE26_EMe_-38" vertex="1">
          <mxGeometry y="78" width="160" height="26" as="geometry" />
        </mxCell>
        <mxCell id="j69wh9Sq0bVNQojSnOhY-51" value="- _imagen: string" style="text;strokeColor=none;fillColor=none;align=left;verticalAlign=top;spacingLeft=4;spacingRight=4;overflow=hidden;rotatable=0;points=[[0,0.5],[1,0.5]];portConstraint=eastwest;whiteSpace=wrap;html=1;" parent="e1QDSc3UWPRIE26_EMe_-38" vertex="1">
          <mxGeometry y="104" width="160" height="26" as="geometry" />
        </mxCell>
        <mxCell id="e1QDSc3UWPRIE26_EMe_-83" value="- _nivel: Nivel ( Principiante, intermedio, Avanzado )" style="text;strokeColor=none;fillColor=none;align=left;verticalAlign=top;spacingLeft=4;spacingRight=4;overflow=hidden;rotatable=0;points=[[0,0.5],[1,0.5]];portConstraint=eastwest;whiteSpace=wrap;html=1;" parent="e1QDSc3UWPRIE26_EMe_-38" vertex="1">
          <mxGeometry y="130" width="160" height="36" as="geometry" />
        </mxCell>
        <mxCell id="e1QDSc3UWPRIE26_EMe_-40" value="" style="line;strokeWidth=1;fillColor=none;align=left;verticalAlign=middle;spacingTop=-1;spacingLeft=3;spacingRight=3;rotatable=0;labelPosition=right;points=[];portConstraint=eastwest;strokeColor=inherit;" parent="e1QDSc3UWPRIE26_EMe_-38" vertex="1">
          <mxGeometry y="166" width="160" height="8" as="geometry" />
        </mxCell>
        <mxCell id="e1QDSc3UWPRIE26_EMe_-39" value="+ getId(): int" style="text;strokeColor=none;fillColor=none;align=left;verticalAlign=top;spacingLeft=4;spacingRight=4;overflow=hidden;rotatable=0;points=[[0,0.5],[1,0.5]];portConstraint=eastwest;whiteSpace=wrap;html=1;" parent="e1QDSc3UWPRIE26_EMe_-38" vertex="1">
          <mxGeometry y="174" width="160" height="26" as="geometry" />
        </mxCell>
        <mxCell id="e1QDSc3UWPRIE26_EMe_-92" value="+ getTitulo(): string&lt;br&gt;" style="text;strokeColor=none;fillColor=none;align=left;verticalAlign=top;spacingLeft=4;spacingRight=4;overflow=hidden;rotatable=0;points=[[0,0.5],[1,0.5]];portConstraint=eastwest;whiteSpace=wrap;html=1;" parent="e1QDSc3UWPRIE26_EMe_-38" vertex="1">
          <mxGeometry y="200" width="160" height="26" as="geometry" />
        </mxCell>
        <mxCell id="e1QDSc3UWPRIE26_EMe_-93" value="+ getDescripcion(): string" style="text;strokeColor=none;fillColor=none;align=left;verticalAlign=top;spacingLeft=4;spacingRight=4;overflow=hidden;rotatable=0;points=[[0,0.5],[1,0.5]];portConstraint=eastwest;whiteSpace=wrap;html=1;" parent="e1QDSc3UWPRIE26_EMe_-38" vertex="1">
          <mxGeometry y="226" width="160" height="26" as="geometry" />
        </mxCell>
        <mxCell id="j69wh9Sq0bVNQojSnOhY-52" value="+ getImagen(): string" style="text;strokeColor=none;fillColor=none;align=left;verticalAlign=top;spacingLeft=4;spacingRight=4;overflow=hidden;rotatable=0;points=[[0,0.5],[1,0.5]];portConstraint=eastwest;whiteSpace=wrap;html=1;" parent="e1QDSc3UWPRIE26_EMe_-38" vertex="1">
          <mxGeometry y="252" width="160" height="26" as="geometry" />
        </mxCell>
        <mxCell id="e1QDSc3UWPRIE26_EMe_-41" value="+ getNivel(): Nivel" style="text;strokeColor=none;fillColor=none;align=left;verticalAlign=top;spacingLeft=4;spacingRight=4;overflow=hidden;rotatable=0;points=[[0,0.5],[1,0.5]];portConstraint=eastwest;whiteSpace=wrap;html=1;" parent="e1QDSc3UWPRIE26_EMe_-38" vertex="1">
          <mxGeometry y="278" width="160" height="26" as="geometry" />
        </mxCell>
        <mxCell id="j69wh9Sq0bVNQojSnOhY-14" style="edgeStyle=orthogonalEdgeStyle;rounded=0;orthogonalLoop=1;jettySize=auto;html=1;entryX=0.035;entryY=0.019;entryDx=0;entryDy=0;entryPerimeter=0;" parent="1" source="e1QDSc3UWPRIE26_EMe_-38" target="e1QDSc3UWPRIE26_EMe_-18" edge="1">
          <mxGeometry relative="1" as="geometry">
            <Array as="points">
              <mxPoint x="247" y="320" />
            </Array>
          </mxGeometry>
        </mxCell>
        <mxCell id="j69wh9Sq0bVNQojSnOhY-15" value="1...n" style="edgeLabel;html=1;align=left;verticalAlign=bottom;resizable=0;points=[];labelPosition=right;verticalLabelPosition=top;spacingLeft=2;spacingBottom=2;spacingRight=2;spacingTop=2;" parent="j69wh9Sq0bVNQojSnOhY-14" connectable="0" vertex="1">
          <mxGeometry x="0.8461" y="2" relative="1" as="geometry">
            <mxPoint y="4" as="offset" />
          </mxGeometry>
        </mxCell>
        <mxCell id="j69wh9Sq0bVNQojSnOhY-16" value="1...1" style="edgeLabel;html=1;align=right;verticalAlign=top;resizable=0;points=[];spacingTop=2;spacingBottom=2;spacingRight=2;spacingLeft=2;labelPosition=left;verticalLabelPosition=bottom;" parent="j69wh9Sq0bVNQojSnOhY-14" connectable="0" vertex="1">
          <mxGeometry x="-0.7532" y="1" relative="1" as="geometry">
            <mxPoint as="offset" />
          </mxGeometry>
        </mxCell>
        <mxCell id="j69wh9Sq0bVNQojSnOhY-25" style="edgeStyle=orthogonalEdgeStyle;rounded=0;orthogonalLoop=1;jettySize=auto;html=1;" parent="1" source="e1QDSc3UWPRIE26_EMe_-56" target="e1QDSc3UWPRIE26_EMe_-26" edge="1">
          <mxGeometry relative="1" as="geometry" />
        </mxCell>
        <mxCell id="j69wh9Sq0bVNQojSnOhY-27" value="1...n" style="edgeLabel;html=1;align=left;verticalAlign=bottom;resizable=0;points=[];labelPosition=right;verticalLabelPosition=top;spacingLeft=2;spacingTop=2;spacingBottom=2;spacingRight=2;" parent="j69wh9Sq0bVNQojSnOhY-25" connectable="0" vertex="1">
          <mxGeometry x="0.8306" y="1" relative="1" as="geometry">
            <mxPoint y="8" as="offset" />
          </mxGeometry>
        </mxCell>
        <mxCell id="j69wh9Sq0bVNQojSnOhY-28" value="1...1" style="edgeLabel;html=1;align=right;verticalAlign=top;resizable=0;points=[];labelPosition=left;verticalLabelPosition=bottom;spacingLeft=2;spacingBottom=2;spacingRight=2;spacingTop=2;" parent="j69wh9Sq0bVNQojSnOhY-25" connectable="0" vertex="1">
          <mxGeometry x="-0.8164" relative="1" as="geometry">
            <mxPoint x="15" as="offset" />
          </mxGeometry>
        </mxCell>
      </root>
    </mxGraphModel>
  </diagram>
</mxfile>
